<?xml version="1.0" encoding="utf-8"?>
<!-- Generator: Adobe Illustrator 24.0.3, SVG Export Plug-In . SVG Version: 6.00 Build 0)  -->
<svg version="1.1" id="Capa_1" xmlns="http://www.w3.org/2000/svg" xmlns:xlink="http://www.w3.org/1999/xlink" x="0px" y="0px"
	 viewBox="0 0 512 512" style="enable-background:new 0 0 512 512;" xml:space="preserve">
<g>
	<g>
		<path d="M492,231H20c-11,0-20,11.2-20,25c0,13.8,9,25,20,25h472c11,0,20-11.2,20-25S503,231,492,231z"/>
	</g>
</g>
<g>
	<g>
		<path d="M492,71H20C9,71,0,82.2,0,96s9,25,20,25h472c11,0,20-11.2,20-25S503,71,492,71z"/>
	</g>
</g>
<g>
	<g>
		<path d="M492,391H20c-11,0-20,11.2-20,25s9,25,20,25h472c11,0,20-11.2,20-25S503,391,492,391z"/>
	</g>
</g>
</svg>
